<svg aria-hidden="true" version="1.1" xmlns="http://www.w3.org/2000/svg" xmlns:xlink="http://www.w3.org/1999/xlink" x="0px" y="0px" viewBox="0 0 129.2 29.4" enable-background="new 0 0 129.2 29.4" xml:space="preserve"> <rect y="0" fill="none" width="129.2" height="29.37"></rect> <path fill="#686A6E" d="M44.2,21.8h-3V10.2h-0.1c-1.6,4.1-3.3,7.8-5,11.6h-1.6c-1.6-3.8-3.2-7.5-4.7-11.6h-0.1v11.6h-2.4V6.9H31 c1.5,3.7,4,9.5,4.6,11.4c0.7-2,3.4-7.7,5.1-11.4h3.5L44.2,21.8z"></path> <path fill="#686A6E" d="M51.3,10.9H51c0,0,0,0,0,0c-2.87,0.06-5.15,2.43-5.1,5.3v0.4c0,0,0,0,0,0c0.06,3.04,2.56,5.45,5.6,5.4 c1.48,0,2.94-0.41,4.2-1.2l-0.8-1.5c-0.86,0.58-1.87,0.9-2.9,0.9c0,0-0.01,0-0.01,0c-1.82-0.11-3.2-1.68-3.09-3.5h6.9 C56,13.5,54.6,10.9,51.3,10.9z M53.1,15.2H49v-0.4c0-1.27,1.03-2.3,2.3-2.3C52.7,12.5,53.2,13.6,53.1,15.2z"></path> <path fill="#686A6E" d="M61,11.2h2.8v1.4H61v5.2c0,1.8,0.5,2.5,1.5,2.5c0.47,0.02,0.93-0.12,1.3-0.4l0.5,1.4 c-0.85,0.48-1.82,0.72-2.8,0.7c-2.3,0-3.3-1.2-3.3-3.4v-6h-1.5v-1.4h1.5V8.6L61,8V11.2z"></path> <path fill="#686A6E" d="M68.3,13l0.6-0.8c0.4-0.5,1-1.3,1.8-1.3c0.78,0.01,1.52,0.38,2,1l-1.1,1.9c-0.39-0.24-0.84-0.38-1.3-0.4 c-1,0-2,0.8-2,3.1v5.3h-2.8V11.2h2.8V13z"></path> <path fill="#686A6E" d="M83.3,16.09c-0.11-2.98-2.62-5.31-5.6-5.19h-0.2c-2.98,0-5.4,2.42-5.4,5.4c0,0,0,0.01,0,0.01 c0,3.09,2.51,5.6,5.6,5.6s5.6-2.51,5.6-5.6L83.3,16.09C83.3,16.1,83.3,16.1,83.3,16.09z M77.7,20.4c-2,0-2.6-2.4-2.6-4.1 c0-1.7,0.6-3.8,2.6-3.8s2.6,2.1,2.6,3.8C80.3,18.2,79.7,20.4,77.7,20.4z"></path> <path fill="#686A6E" d="M91,10.9c-1.34-0.01-2.6,0.62-3.4,1.7h-0.1v-1.4h-2.8v15.9h2.8v-6.7c0.76,1.01,1.94,1.6,3.2,1.6 c3.1,0,5-3.5,5-5.8S94.3,10.9,91,10.9z M90.1,20.3c-1.5,0-2.6-1.5-2.6-3.7c0-2.5,1.2-4,2.8-4c1.6,0,2.4,1.7,2.4,3.6 C92.7,18.1,91.6,20.3,90.1,20.3z"></path> <path fill="#686A6E" d="M102.5,10.7c-3.09,0-5.6,2.51-5.6,5.6c0,3.09,2.51,5.6,5.6,5.6s5.6-2.51,5.6-5.6 C108.1,13.21,105.59,10.7,102.5,10.7z M102.5,20.4c-2,0-2.6-2.4-2.6-4.1c0-1.7,0.6-3.8,2.6-3.8s2.6,2.1,2.6,3.8 C105.1,18.2,104.5,20.4,102.5,20.4z"></path> <path fill="#686A6E" d="M109.9,6.2h2.8v15.6h-2.8V6.2z"></path> <rect y="0" fill="none" width="129.2" height="29.37"></rect> <rect x="115.2" y="11.2" fill="#686A6E" width="2.8" height="10.6"></rect> <path fill="#686A6E" d="M114.9,8c0-0.94,0.76-1.7,1.7-1.7c0.94,0,1.7,0.76,1.7,1.7s-0.76,1.7-1.7,1.7C115.66,9.7,114.9,8.94,114.9,8 "></path> <path fill="#686A6E" d="M128.7,19.3v-4.4c0-3.3-2.4-3.9-4.3-3.9c-1.48,0.01-2.92,0.5-4.1,1.4l0.9,1.4c0.76-0.71,1.76-1.1,2.8-1.1 c0.97-0.02,1.81,0.65,2,1.6l-2.5,0.7c-2.5,0.7-4,1.9-4,3.9c0,1.71,1.39,3.1,3.1,3.1c1.02-0.12,1.97-0.58,2.7-1.3l0.6-0.4 c0,0.55,0.1,1.09,0.3,1.6h3C128.84,21.08,128.66,20.19,128.7,19.3z M123.6,20.1C123.6,20.1,123.6,20.1,123.6,20.1 c-0.78-0.06-1.36-0.73-1.3-1.5c0.02-1.22,0.9-2.26,2.1-2.5l1.6-0.5C126.2,18.7,124.7,20.1,123.6,20.1z"></path> <path fill="#F26522" d="M22.5,3.2c-0.2-0.8-0.6-1.5-1.4-1.6c-0.8-0.1-3.4,0.9-5.5,3.1c-0.19-0.91-0.97-1.57-1.9-1.6 c-3.5,0-7.1,4.8-9.6,10.4C1.99,18.58,0.61,23.93,0,29.4h1.6c0,0,1-8.4,4.2-14.9s5.3-8.1,7.1-9.1h0.2c0.4,0.1,0.6,0.7,0.7,1.5 c-1.05,1.45-2.01,2.95-2.9,4.5c-4,7-2.3,8.9-1,8.9c1.3,0,2.3-1.8,2.4-1.8c1.01-1.7,1.82-3.51,2.4-5.4c1.1-3.2,1.2-4.9,1.1-5.8 c1.06-1.24,2.27-2.35,3.6-3.3h0.7c0.3,0.1,0.5,0.5,0.6,1c-0.92,1.17-1.76,2.41-2.5,3.7c-3.4,6.4-2,8.1-0.9,8.1 c1.1,0,2.2-1.8,2.2-1.8l-0.2,0.4c1.04-1.54,1.85-3.22,2.4-5c0.71-1.64,1.05-3.41,1-5.2c1.35-1.4,2.94-2.55,4.7-3.4L27.6,0 C25.69,0.69,23.95,1.78,22.5,3.2z M13.2,13.1c-0.42,1.88-1.16,3.67-2.2,5.3c-0.18,0.31-0.47,0.56-0.8,0.7 c0.32-2.62,1.21-5.15,2.6-7.4l0.9-1.5C13.59,11.18,13.42,12.14,13.2,13.1z M20.2,10.4c-0.44,1.7-1.15,3.32-2.1,4.8 c-0.11,0.27-0.33,0.49-0.6,0.6c-0.1-1,0.9-3.8,2.6-6.8l0.6-0.9L20.2,10.4z"></path> </svg>