<svg
    width="30"
    height="30"
    viewBox="0 0 30 30"
    fill="none"
    xmlns="http://www.w3.org/2000/svg"
>
    <path
        fill="#F26522"
        d="M22.5,3.2c-0.2-0.8-0.6-1.5-1.4-1.6c-0.8-0.1-3.4,0.9-5.5,3.1c-0.19-0.91-0.97-1.57-1.9-1.6
        c-3.5,0-7.1,4.8-9.6,10.4C1.99,18.58,0.61,23.93,0,29.4h1.6c0,0,1-8.4,4.2-14.9s5.3-8.1,7.1-9.1h0.2c0.4,0.1,0.6,0.7,0.7,1.5
        c-1.05,1.45-2.01,2.95-2.9,4.5c-4,7-2.3,8.9-1,8.9c1.3,0,2.3-1.8,2.4-1.8c1.01-1.7,1.82-3.51,2.4-5.4c1.1-3.2,1.2-4.9,1.1-5.8
        c1.06-1.24,2.27-2.35,3.6-3.3h0.7c0.3,0.1,0.5,0.5,0.6,1c-0.92,1.17-1.76,2.41-2.5,3.7c-3.4,6.4-2,8.1-0.9,8.1
        c1.1,0,2.2-1.8,2.2-1.8l-0.2,0.4c1.04-1.54,1.85-3.22,2.4-5c0.71-1.64,1.05-3.41,1-5.2c1.35-1.4,2.94-2.55,4.7-3.4L27.6,0
        C25.69,0.69,23.95,1.78,22.5,3.2z M13.2,13.1c-0.42,1.88-1.16,3.67-2.2,5.3c-0.18,0.31-0.47,0.56-0.8,0.7
        c0.32-2.62,1.21-5.15,2.6-7.4l0.9-1.5C13.59,11.18,13.42,12.14,13.2,13.1z M20.2,10.4c-0.44,1.7-1.15,3.32-2.1,4.8
        c-0.11,0.27-0.33,0.49-0.6,0.6c-0.1-1,0.9-3.8,2.6-6.8l0.6-0.9L20.2,10.4z"
    />
</svg>